<svg class="main-svg" xmlns="http://www.w3.org/2000/svg" xmlns:xlink="http://www.w3.org/1999/xlink" width="1200" height="800" style="" viewBox="0 0 1200 800"><rect x="0" y="0" width="1200" height="800" style="fill: rgb(255, 255, 255); fill-opacity: 1;"/><defs id="defs-8aefe2"><g class="clips"><clipPath id="clip8aefe2xyplot" class="plotclip"><rect width="1040" height="133.11111111111111"/></clipPath><clipPath id="clip8aefe2x2y2plot" class="plotclip"><rect width="1040" height="133.11111111111114"/></clipPath><clipPath id="clip8aefe2x3y3plot" class="plotclip"><rect width="1040" height="133.11111111111111"/></clipPath><clipPath class="axesclip" id="clip8aefe2x"><rect x="80" y="0" width="1040" height="800"/></clipPath><clipPath class="axesclip" id="clip8aefe2y"><rect x="0" y="100" width="1200" height="133.11111111111111"/></clipPath><clipPath class="axesclip" id="clip8aefe2xy"><rect x="80" y="100" width="1040" height="133.11111111111111"/></clipPath><clipPath class="axesclip" id="clip8aefe2y2"><rect x="0" y="332.94444444444446" width="1200" height="133.11111111111114"/></clipPath><clipPath class="axesclip" id="clip8aefe2xy2"><rect x="80" y="332.94444444444446" width="1040" height="133.11111111111114"/></clipPath><clipPath class="axesclip" id="clip8aefe2y3"><rect x="0" y="565.8888888888889" width="1200" height="133.11111111111111"/></clipPath><clipPath class="axesclip" id="clip8aefe2xy3"><rect x="80" y="565.8888888888889" width="1040" height="133.11111111111111"/></clipPath><clipPath class="axesclip" id="clip8aefe2x2"><rect x="80" y="0" width="1040" height="800"/></clipPath><clipPath class="axesclip" id="clip8aefe2x2y"><rect x="80" y="100" width="1040" height="133.11111111111111"/></clipPath><clipPath class="axesclip" id="clip8aefe2x2y2"><rect x="80" y="332.94444444444446" width="1040" height="133.11111111111114"/></clipPath><clipPath class="axesclip" id="clip8aefe2x2y3"><rect x="80" y="565.8888888888889" width="1040" height="133.11111111111111"/></clipPath><clipPath class="axesclip" id="clip8aefe2x3"><rect x="80" y="0" width="1040" height="800"/></clipPath><clipPath class="axesclip" id="clip8aefe2x3y"><rect x="80" y="100" width="1040" height="133.11111111111111"/></clipPath><clipPath class="axesclip" id="clip8aefe2x3y2"><rect x="80" y="332.94444444444446" width="1040" height="133.11111111111114"/></clipPath><clipPath class="axesclip" id="clip8aefe2x3y3"><rect x="80" y="565.8888888888889" width="1040" height="133.11111111111111"/></clipPath></g><g class="gradients"/></defs><g class="bglayer"><rect class="bg" x="80" y="100" width="1040" height="133.11111111111111" style="fill: rgb(229, 236, 246); fill-opacity: 1; stroke-width: 0;"/><rect class="bg" x="80" y="332.94444444444446" width="1040" height="133.11111111111114" style="fill: rgb(229, 236, 246); fill-opacity: 1; stroke-width: 0;"/><rect class="bg" x="80" y="565.8888888888889" width="1040" height="133.11111111111111" style="fill: rgb(229, 236, 246); fill-opacity: 1; stroke-width: 0;"/></g><g class="layer-below"><g class="imagelayer"/><g class="shapelayer"/></g><g class="cartesianlayer"><g class="subplot xy"><g class="layer-subplot"><g class="shapelayer"/><g class="imagelayer"/></g><g class="gridlayer"><g class="x"><path class="xgrid crisp" transform="translate(120.22,0)" d="M0,100v133.11111111111111" style="stroke: rgb(255, 255, 255); stroke-opacity: 1; stroke-width: 1px;"/><path class="xgrid crisp" transform="translate(235.14,0)" d="M0,100v133.11111111111111" style="stroke: rgb(255, 255, 255); stroke-opacity: 1; stroke-width: 1px;"/><path class="xgrid crisp" transform="translate(464.97,0)" d="M0,100v133.11111111111111" style="stroke: rgb(255, 255, 255); stroke-opacity: 1; stroke-width: 1px;"/><path class="xgrid crisp" transform="translate(579.89,0)" d="M0,100v133.11111111111111" style="stroke: rgb(255, 255, 255); stroke-opacity: 1; stroke-width: 1px;"/><path class="xgrid crisp" transform="translate(694.81,0)" d="M0,100v133.11111111111111" style="stroke: rgb(255, 255, 255); stroke-opacity: 1; stroke-width: 1px;"/><path class="xgrid crisp" transform="translate(809.72,0)" d="M0,100v133.11111111111111" style="stroke: rgb(255, 255, 255); stroke-opacity: 1; stroke-width: 1px;"/><path class="xgrid crisp" transform="translate(924.64,0)" d="M0,100v133.11111111111111" style="stroke: rgb(255, 255, 255); stroke-opacity: 1; stroke-width: 1px;"/><path class="xgrid crisp" transform="translate(1039.56,0)" d="M0,100v133.11111111111111" style="stroke: rgb(255, 255, 255); stroke-opacity: 1; stroke-width: 1px;"/></g><g class="y"><path class="ygrid crisp" transform="translate(0,188.97)" d="M80,0h1040" style="stroke: rgb(255, 255, 255); stroke-opacity: 1; stroke-width: 1px;"/><path class="ygrid crisp" transform="translate(0,151.48)" d="M80,0h1040" style="stroke: rgb(255, 255, 255); stroke-opacity: 1; stroke-width: 1px;"/><path class="ygrid crisp" transform="translate(0,114)" d="M80,0h1040" style="stroke: rgb(255, 255, 255); stroke-opacity: 1; stroke-width: 1px;"/></g></g><g class="zerolinelayer"><path class="xzl zl crisp" transform="translate(350.06,0)" d="M0,100v133.11111111111111" style="stroke: rgb(255, 255, 255); stroke-opacity: 1; stroke-width: 2px;"/><path class="yzl zl crisp" transform="translate(0,226.45999999999998)" d="M80,0h1040" style="stroke: rgb(255, 255, 255); stroke-opacity: 1; stroke-width: 2px;"/></g><path class="xlines-below"/><path class="ylines-below"/><g class="overlines-below"/><g class="xaxislayer-below"/><g class="yaxislayer-below"/><g class="overaxes-below"/><g class="plot" transform="translate(80, 100)" clip-path="url('#clip8aefe2xyplot')"><g class="scatterlayer mlayer"><g class="trace scatter trace22a050" style="stroke-miterlimit: 2; opacity: 1;"><g class="fills"/><g class="errorbars"/><g class="lines"><path class="js-line" d="M0,126.38L51.71,126.36L57.46,126.35L126.41,125.49L132.15,125.33L166.63,122.46L172.38,121.7L189.61,118.43L195.36,116.19L206.85,111.85L212.6,108.49L224.09,99.74L229.83,94.36L235.58,88.49L241.33,79.09L247.07,69.73L252.82,58.45L258.56,43.88L264.31,27.14L270.06,6.66L275.8,89.11L287.29,74.7L293.04,70.2L304.53,67.6L310.28,69.08L321.77,71.82L327.51,72.72L339.01,74.38L344.75,76.41L350.5,76.07L356.24,77.96L361.99,77.53L367.73,78.21L379.23,81.11L384.97,81.13L396.46,82.32L402.21,84.08L419.45,85.62L425.19,86.76L436.69,88.64L442.43,88.4L459.67,91.36L465.41,91.47L476.91,92.44L482.65,93.7L488.4,93.78L494.14,94.94L511.38,95.45L517.13,96.52L522.87,97.8L528.62,97.65L540.11,99.18L545.86,99.66L568.84,101.41L574.59,102.69L586.08,102.75L591.82,103.92L597.57,103.76L603.31,104.89L609.06,104.27L614.81,105.32L649.28,107.82L655.03,108.27L689.5,109.93L695.25,110.77L787.18,115.12L792.93,115.05L821.66,116.38L827.4,116.6L919.34,119.39L925.08,119.53L936.57,119.88L942.32,120.27L971.05,120.39L976.8,120.91L1028.51,121.75L1034.25,121.9L1040,122.13" style="vector-effect: non-scaling-stroke; fill: none; stroke: rgb(171, 99, 250); stroke-opacity: 1; stroke-width: 2px; opacity: 1;"/></g><g class="points"/><g class="text"/></g><g class="trace scatter trace9eea24" style="stroke-miterlimit: 2; opacity: 1;"><g class="fills"/><g class="errorbars"/><g class="lines"><path class="js-line" d="M0,126.46L155.14,125.81L160.88,125.67L195.36,123.94L201.1,123.4L218.34,121.03L224.09,119.89L235.58,116.84L241.33,114.81L252.82,109.36L258.56,105.75L270.06,96.15L275.8,89.86L298.78,60.73L304.53,57.15L310.28,56.41L316.02,57.97L333.26,66.18L339.01,67.93L350.5,69.86L356.24,70.53L384.97,74.62L390.72,75.49L465.41,85.84L471.16,86.6L522.87,92.71L528.62,93.3L637.79,103.48L643.54,103.92L752.71,111.19L758.45,111.49L861.88,116.2L867.62,116.42L965.3,119.44L971.05,119.58L1040,121.14" style="vector-effect: non-scaling-stroke; fill: none; stroke: rgb(255, 161, 90); stroke-opacity: 1; stroke-width: 2px; opacity: 1;"/></g><g class="points"/><g class="text"/></g></g></g><g class="overplot"/><path class="xlines-above crisp" d="M0,0" style="fill: none;"/><path class="ylines-above crisp" d="M0,0" style="fill: none;"/><g class="overlines-above"/><g class="xaxislayer-above"/><g class="yaxislayer-above"><g class="ytick"><text text-anchor="end" x="79" y="4.199999999999999" transform="translate(0,226.45999999999998)" style="font-family: 'Open Sans', verdana, arial, sans-serif; font-size: 12px; fill: rgb(42, 63, 95); fill-opacity: 1; white-space: pre;">0</text></g><g class="ytick"><text text-anchor="end" x="79" y="4.199999999999999" transform="translate(0,188.97)" style="font-family: 'Open Sans', verdana, arial, sans-serif; font-size: 12px; fill: rgb(42, 63, 95); fill-opacity: 1; white-space: pre;">10k</text></g><g class="ytick"><text text-anchor="end" x="79" y="4.199999999999999" transform="translate(0,151.48)" style="font-family: 'Open Sans', verdana, arial, sans-serif; font-size: 12px; fill: rgb(42, 63, 95); fill-opacity: 1; white-space: pre;">20k</text></g><g class="ytick"><text text-anchor="end" x="79" y="4.199999999999999" transform="translate(0,114)" style="font-family: 'Open Sans', verdana, arial, sans-serif; font-size: 12px; fill: rgb(42, 63, 95); fill-opacity: 1; white-space: pre;">30k</text></g></g><g class="overaxes-above"/></g><g class="subplot x2y2"><g class="layer-subplot"><g class="shapelayer"/><g class="imagelayer"/></g><g class="gridlayer"><g class="x2"><path class="x2grid crisp" transform="translate(120.22,0)" d="M0,332.94444444444446v133.11111111111114" style="stroke: rgb(255, 255, 255); stroke-opacity: 1; stroke-width: 1px;"/><path class="x2grid crisp" transform="translate(235.14,0)" d="M0,332.94444444444446v133.11111111111114" style="stroke: rgb(255, 255, 255); stroke-opacity: 1; stroke-width: 1px;"/><path class="x2grid crisp" transform="translate(464.97,0)" d="M0,332.94444444444446v133.11111111111114" style="stroke: rgb(255, 255, 255); stroke-opacity: 1; stroke-width: 1px;"/><path class="x2grid crisp" transform="translate(579.89,0)" d="M0,332.94444444444446v133.11111111111114" style="stroke: rgb(255, 255, 255); stroke-opacity: 1; stroke-width: 1px;"/><path class="x2grid crisp" transform="translate(694.81,0)" d="M0,332.94444444444446v133.11111111111114" style="stroke: rgb(255, 255, 255); stroke-opacity: 1; stroke-width: 1px;"/><path class="x2grid crisp" transform="translate(809.72,0)" d="M0,332.94444444444446v133.11111111111114" style="stroke: rgb(255, 255, 255); stroke-opacity: 1; stroke-width: 1px;"/><path class="x2grid crisp" transform="translate(924.64,0)" d="M0,332.94444444444446v133.11111111111114" style="stroke: rgb(255, 255, 255); stroke-opacity: 1; stroke-width: 1px;"/><path class="x2grid crisp" transform="translate(1039.56,0)" d="M0,332.94444444444446v133.11111111111114" style="stroke: rgb(255, 255, 255); stroke-opacity: 1; stroke-width: 1px;"/></g><g class="y2"><path class="y2grid crisp" transform="translate(0,413.89444444444445)" d="M80,0h1040" style="stroke: rgb(255, 255, 255); stroke-opacity: 1; stroke-width: 1px;"/><path class="y2grid crisp" transform="translate(0,368.39444444444445)" d="M80,0h1040" style="stroke: rgb(255, 255, 255); stroke-opacity: 1; stroke-width: 1px;"/></g></g><g class="zerolinelayer"><path class="x2zl zl crisp" transform="translate(350.06,0)" d="M0,332.94444444444446v133.11111111111114" style="stroke: rgb(255, 255, 255); stroke-opacity: 1; stroke-width: 2px;"/><path class="y2zl zl crisp" transform="translate(0,459.40444444444444)" d="M80,0h1040" style="stroke: rgb(255, 255, 255); stroke-opacity: 1; stroke-width: 2px;"/></g><path class="xlines-below"/><path class="ylines-below"/><g class="overlines-below"/><g class="xaxislayer-below"/><g class="yaxislayer-below"/><g class="overaxes-below"/><g class="plot" transform="translate(80, 332.94444444444446)" clip-path="url('#clip8aefe2x2y2plot')"><g class="scatterlayer mlayer"><g class="trace scatter trace3dbdc9" style="stroke-miterlimit: 2; opacity: 1;"><g class="fills"/><g class="errorbars"/><g class="lines"><path class="js-line" d="M0,126.46L11.49,126.46L17.24,53.57L22.98,47.79L28.73,12.29L34.48,6.66L40.22,63.5L45.97,35.92L51.71,26.77L57.46,39.67L63.2,40.63L68.95,50.75L74.7,49.64L86.19,32.66L91.93,37.39L97.68,45.01L103.43,57.92L109.17,56.84L114.92,44.77L120.66,41.97L126.41,49.61L132.15,52.22L137.9,40.36L143.65,41.14L149.39,45.58L155.14,48.14L160.88,45.14L166.63,43.55L172.38,45.11L178.12,46.82L183.87,42.79L189.61,49.77L195.36,45.65L201.1,46.23L206.85,48.04L218.34,45.12L224.09,45.4L229.83,46.02L235.58,47.99L241.33,45.74L247.07,46.66L252.82,47.4L258.56,47.13L270.06,47.78L275.8,106.16L298.78,106.52L304.53,106.14L333.26,106.26L339.01,106.17L344.75,106.67L350.5,106.23L356.24,106.69L361.99,106.19L396.46,106.27L402.21,106.74L430.94,106.7L436.69,106.96L442.43,106.48L448.18,106.78L505.64,106.31L511.38,106.12L522.87,106.98L528.62,106.55L540.11,106.94L545.86,106.93L580.33,106.72L586.08,106.63L591.82,107.24L597.57,106.71L603.31,107.32L609.06,106.37L620.55,106.86L626.3,106.59L666.52,107.07L672.27,106.82L683.76,106.94L689.5,106.65L700.99,107.26L706.74,106.91L712.49,107.37L718.23,107.04L723.98,106.64L729.72,107.21L735.47,106.55L741.22,107.38L746.96,106.91L752.71,107.47L781.44,107.14L787.18,107.08L798.67,106.68L804.42,107.82L815.91,106.96L821.66,107.01L867.62,107.37L873.37,106.59L879.12,107.36L884.86,106.84L902.1,107.34L907.85,108.01L919.34,106.85L925.08,106.79L930.83,105.99L936.57,106.94L942.32,107.73L948.07,107.32L953.81,106.49L959.56,108.05L965.3,107.56L971.05,106.17L976.8,107.45L982.54,107.15L988.29,107.34L994.03,105.92L999.78,108.16L1005.52,106.55L1011.27,107.72L1017.02,106.56L1040,107.78" style="vector-effect: non-scaling-stroke; fill: none; stroke: rgb(25, 211, 243); stroke-opacity: 1; stroke-width: 2px; opacity: 1;"/></g><g class="points"/><g class="text"/></g></g></g><g class="overplot"/><path class="xlines-above crisp" d="M0,0" style="fill: none;"/><path class="ylines-above crisp" d="M0,0" style="fill: none;"/><g class="overlines-above"/><g class="xaxislayer-above"/><g class="yaxislayer-above"><g class="y2tick"><text text-anchor="end" x="79" y="4.199999999999999" transform="translate(0,459.40444444444444)" style="font-family: 'Open Sans', verdana, arial, sans-serif; font-size: 12px; fill: rgb(42, 63, 95); fill-opacity: 1; white-space: pre;">0</text></g><g class="y2tick"><text text-anchor="end" x="79" y="4.199999999999999" transform="translate(0,413.89444444444445)" style="font-family: 'Open Sans', verdana, arial, sans-serif; font-size: 12px; fill: rgb(42, 63, 95); fill-opacity: 1; white-space: pre;">2</text></g><g class="y2tick"><text text-anchor="end" x="79" y="4.199999999999999" transform="translate(0,368.39444444444445)" style="font-family: 'Open Sans', verdana, arial, sans-serif; font-size: 12px; fill: rgb(42, 63, 95); fill-opacity: 1; white-space: pre;">4</text></g></g><g class="overaxes-above"/></g><g class="subplot x3y3"><g class="layer-subplot"><g class="shapelayer"/><g class="imagelayer"/></g><g class="gridlayer"><g class="x3"><path class="x3grid crisp" transform="translate(120.22,0)" d="M0,565.8888888888889v133.11111111111111" style="stroke: rgb(255, 255, 255); stroke-opacity: 1; stroke-width: 1px;"/><path class="x3grid crisp" transform="translate(235.14,0)" d="M0,565.8888888888889v133.11111111111111" style="stroke: rgb(255, 255, 255); stroke-opacity: 1; stroke-width: 1px;"/><path class="x3grid crisp" transform="translate(464.97,0)" d="M0,565.8888888888889v133.11111111111111" style="stroke: rgb(255, 255, 255); stroke-opacity: 1; stroke-width: 1px;"/><path class="x3grid crisp" transform="translate(579.89,0)" d="M0,565.8888888888889v133.11111111111111" style="stroke: rgb(255, 255, 255); stroke-opacity: 1; stroke-width: 1px;"/><path class="x3grid crisp" transform="translate(694.81,0)" d="M0,565.8888888888889v133.11111111111111" style="stroke: rgb(255, 255, 255); stroke-opacity: 1; stroke-width: 1px;"/><path class="x3grid crisp" transform="translate(809.72,0)" d="M0,565.8888888888889v133.11111111111111" style="stroke: rgb(255, 255, 255); stroke-opacity: 1; stroke-width: 1px;"/><path class="x3grid crisp" transform="translate(924.64,0)" d="M0,565.8888888888889v133.11111111111111" style="stroke: rgb(255, 255, 255); stroke-opacity: 1; stroke-width: 1px;"/><path class="x3grid crisp" transform="translate(1039.56,0)" d="M0,565.8888888888889v133.11111111111111" style="stroke: rgb(255, 255, 255); stroke-opacity: 1; stroke-width: 1px;"/></g><g class="y3"><path class="y3grid crisp" transform="translate(0,652.4088888888889)" d="M80,0h1040" style="stroke: rgb(255, 255, 255); stroke-opacity: 1; stroke-width: 1px;"/><path class="y3grid crisp" transform="translate(0,612.478888888889)" d="M80,0h1040" style="stroke: rgb(255, 255, 255); stroke-opacity: 1; stroke-width: 1px;"/><path class="y3grid crisp" transform="translate(0,572.5488888888889)" d="M80,0h1040" style="stroke: rgb(255, 255, 255); stroke-opacity: 1; stroke-width: 1px;"/></g></g><g class="zerolinelayer"><path class="x3zl zl crisp" transform="translate(350.06,0)" d="M0,565.8888888888889v133.11111111111111" style="stroke: rgb(255, 255, 255); stroke-opacity: 1; stroke-width: 2px;"/><path class="y3zl zl crisp" transform="translate(0,692.348888888889)" d="M80,0h1040" style="stroke: rgb(255, 255, 255); stroke-opacity: 1; stroke-width: 2px;"/></g><path class="xlines-below"/><path class="ylines-below"/><g class="overlines-below"/><g class="xaxislayer-below"/><g class="yaxislayer-below"/><g class="overaxes-below"/><g class="plot" transform="translate(80, 565.8888888888889)" clip-path="url('#clip8aefe2x3y3plot')"><g class="scatterlayer mlayer"><g class="trace scatter traced0d373" style="stroke-miterlimit: 2; opacity: 1;"><g class="fills"/><g class="errorbars"/><g class="lines"><path class="js-line" d="M0,126.46L293.04,125.78L298.78,125.5L310.28,125.04L316.02,124.85L327.51,123.4L333.26,122.7L344.75,121.57L350.5,120.17L361.99,118.12L367.73,116.95L379.23,115.23L384.97,112.9L407.96,104.78L413.7,102.69L419.45,100.29L425.19,99.09L430.94,97.42L436.69,94.71L448.18,90.2L453.92,87.93L488.4,77.73L494.14,76.76L499.89,74.3L505.64,73.33L540.11,65.5L545.86,64.44L563.09,60.89L568.84,60.08L591.82,56.08L597.57,55.5L626.3,51.6L632.04,51.11L649.28,48.74L655.03,48.28L672.27,46.9L678.01,46.19L723.98,41.86L729.72,41.22L752.71,38.88L758.45,38.9L798.67,37.34L804.42,37.04L833.15,35.56L838.9,35.09L856.13,34.38L861.88,33.9L930.83,31.57L936.57,31.54L965.3,30.17L971.05,30.09L1005.52,29.03L1011.27,29.08L1040,28.49" style="vector-effect: non-scaling-stroke; fill: none; stroke: rgb(99, 110, 250); stroke-opacity: 1; stroke-width: 2px; opacity: 1;"/></g><g class="points"/><g class="text"/></g><g class="trace scatter traceac65a9" style="stroke-miterlimit: 2; opacity: 1;"><g class="fills"/><g class="errorbars"/><g class="lines"><path class="js-line" d="M0,6.66L1040,6.66" style="vector-effect: non-scaling-stroke; fill: none; stroke: rgb(239, 85, 59); stroke-opacity: 1; stroke-width: 2px; opacity: 1;"/></g><g class="points"/><g class="text"/></g><g class="trace scatter tracebb8340" style="stroke-miterlimit: 2; opacity: 1;"><g class="fills"/><g class="errorbars"/><g class="lines"><path class="js-line" d="M17.24,126.46L275.8,126.46L281.55,98.82L287.29,103.7L293.04,88.98L298.78,80.14L304.53,88.29L310.28,74.02L316.02,74.56L321.77,69.38L327.51,52.86L333.26,48.67L339.01,56.15L344.75,51.67L350.5,43.8L356.24,47.44L361.99,45.25L367.73,46.35L373.48,52.11L379.23,54.67L384.97,50.19L390.72,47.76L396.46,47.38L402.21,45.65L407.96,46.97L413.7,46.43L419.45,44.9L425.19,46.92L430.94,47.19L436.69,44.58L442.43,43.78L453.92,39.83L459.67,39.22L471.16,37.92L476.91,37.85L482.65,35.93L488.4,35.05L494.14,35.42L499.89,32.98L505.64,33.19L511.38,32.51L528.62,30.99L534.36,29.44L545.86,29.49L551.6,28.74L557.35,28.89L563.09,27.77L580.33,26.92L586.08,26.02L603.31,25.72L609.06,25.2L614.81,25.56L620.55,25.13L655.03,23.87L660.77,24.15L718.23,22.21L723.98,22.04L752.71,20.45L758.45,20.84L787.18,21.28L792.93,21.31L844.64,20.76L850.39,20.29L873.37,20.17L879.12,20.23L971.05,19.09L976.8,18.9L1040,18.73" style="vector-effect: non-scaling-stroke; fill: none; stroke: rgb(0, 204, 150); stroke-opacity: 1; stroke-width: 2px; opacity: 1;"/></g><g class="points"/><g class="text"/></g></g></g><g class="overplot"/><path class="xlines-above crisp" d="M0,0" style="fill: none;"/><path class="ylines-above crisp" d="M0,0" style="fill: none;"/><g class="overlines-above"/><g class="xaxislayer-above"><g class="x3tick"><text text-anchor="middle" x="0" y="712" transform="translate(120.22,0)" style="font-family: 'Open Sans', verdana, arial, sans-serif; font-size: 12px; fill: rgb(42, 63, 95); fill-opacity: 1; white-space: pre;">−40</text></g><g class="x3tick"><text text-anchor="middle" x="0" y="712" transform="translate(235.14,0)" style="font-family: 'Open Sans', verdana, arial, sans-serif; font-size: 12px; fill: rgb(42, 63, 95); fill-opacity: 1; white-space: pre;">−20</text></g><g class="x3tick"><text text-anchor="middle" x="0" y="712" transform="translate(350.06,0)" style="font-family: 'Open Sans', verdana, arial, sans-serif; font-size: 12px; fill: rgb(42, 63, 95); fill-opacity: 1; white-space: pre;">0</text></g><g class="x3tick"><text text-anchor="middle" x="0" y="712" transform="translate(464.97,0)" style="font-family: 'Open Sans', verdana, arial, sans-serif; font-size: 12px; fill: rgb(42, 63, 95); fill-opacity: 1; white-space: pre;">20</text></g><g class="x3tick"><text text-anchor="middle" x="0" y="712" transform="translate(579.89,0)" style="font-family: 'Open Sans', verdana, arial, sans-serif; font-size: 12px; fill: rgb(42, 63, 95); fill-opacity: 1; white-space: pre;">40</text></g><g class="x3tick"><text text-anchor="middle" x="0" y="712" transform="translate(694.81,0)" style="font-family: 'Open Sans', verdana, arial, sans-serif; font-size: 12px; fill: rgb(42, 63, 95); fill-opacity: 1; white-space: pre;">60</text></g><g class="x3tick"><text text-anchor="middle" x="0" y="712" transform="translate(809.72,0)" style="font-family: 'Open Sans', verdana, arial, sans-serif; font-size: 12px; fill: rgb(42, 63, 95); fill-opacity: 1; white-space: pre;">80</text></g><g class="x3tick"><text text-anchor="middle" x="0" y="712" transform="translate(924.64,0)" style="font-family: 'Open Sans', verdana, arial, sans-serif; font-size: 12px; fill: rgb(42, 63, 95); fill-opacity: 1; white-space: pre;">100</text></g><g class="x3tick"><text text-anchor="middle" x="0" y="712" transform="translate(1039.56,0)" style="font-family: 'Open Sans', verdana, arial, sans-serif; font-size: 12px; fill: rgb(42, 63, 95); fill-opacity: 1; white-space: pre;">120</text></g></g><g class="yaxislayer-above"><g class="y3tick"><text text-anchor="end" x="79" y="4.199999999999999" transform="translate(0,692.348888888889)" style="font-family: 'Open Sans', verdana, arial, sans-serif; font-size: 12px; fill: rgb(42, 63, 95); fill-opacity: 1; white-space: pre;">0</text></g><g class="y3tick"><text text-anchor="end" x="79" y="4.199999999999999" transform="translate(0,652.4088888888889)" style="font-family: 'Open Sans', verdana, arial, sans-serif; font-size: 12px; fill: rgb(42, 63, 95); fill-opacity: 1; white-space: pre;">0.001</text></g><g class="y3tick"><text text-anchor="end" x="79" y="4.199999999999999" transform="translate(0,612.478888888889)" style="font-family: 'Open Sans', verdana, arial, sans-serif; font-size: 12px; fill: rgb(42, 63, 95); fill-opacity: 1; white-space: pre;">0.002</text></g><g class="y3tick"><text text-anchor="end" x="79" y="4.199999999999999" transform="translate(0,572.5488888888889)" style="font-family: 'Open Sans', verdana, arial, sans-serif; font-size: 12px; fill: rgb(42, 63, 95); fill-opacity: 1; white-space: pre;">0.003</text></g></g><g class="overaxes-above"/></g></g><g class="polarlayer"/><g class="ternarylayer"/><g class="geolayer"/><g class="funnelarealayer"/><g class="pielayer"/><g class="treemaplayer"/><g class="sunburstlayer"/><g class="glimages"/><defs id="topdefs-8aefe2"><g class="clips"/><clipPath id="legend8aefe2"><rect width="576" height="29" x="0" y="0"/></clipPath></defs><g class="layer-above"><g class="imagelayer"/><g class="shapelayer"/></g><g class="infolayer"><g class="legend" pointer-events="all" transform="translate(80, 758.9000000000001)"><rect class="bg" shape-rendering="crispEdges" width="576" height="29" x="0" y="0" style="stroke: rgb(68, 68, 68); stroke-opacity: 1; fill: rgb(255, 255, 255); fill-opacity: 1; stroke-width: 0px;"/><g class="scrollbox" transform="translate(0, 0)" clip-path="url('#legend8aefe2')"><g class="groups"><g class="traces" transform="translate(0, 14.5)" style="opacity: 1;"><text class="legendtext user-select-none" text-anchor="start" x="40" y="4.680000000000001" style="font-family: 'Open Sans', verdana, arial, sans-serif; font-size: 12px; fill: rgb(42, 63, 95); fill-opacity: 1; white-space: pre;">crude</text><g class="layers" style="opacity: 1;"><g class="legendfill"/><g class="legendlines"><path class="js-line" d="M5,0h30" style="fill: none; stroke: rgb(99, 110, 250); stroke-opacity: 1; stroke-width: 2px;"/></g><g class="legendsymbols"><g class="legendpoints"/></g></g><rect class="legendtoggle" pointer-events="all" x="0" y="-9.5" width="74.84375" height="19" style="cursor: pointer; fill: rgb(0, 0, 0); fill-opacity: 0;"/></g><g class="traces" transform="translate(77.34375, 14.5)" style="opacity: 1;"><text class="legendtext user-select-none" text-anchor="start" x="40" y="4.680000000000001" style="font-family: 'Open Sans', verdana, arial, sans-serif; font-size: 12px; fill: rgb(42, 63, 95); fill-opacity: 1; white-space: pre;">real</text><g class="layers" style="opacity: 1;"><g class="legendfill"/><g class="legendlines"><path class="js-line" d="M5,0h30" style="fill: none; stroke: rgb(239, 85, 59); stroke-opacity: 1; stroke-width: 2px;"/></g><g class="legendsymbols"><g class="legendpoints"/></g></g><rect class="legendtoggle" pointer-events="all" x="0" y="-9.5" width="63.84375" height="19" style="cursor: pointer; fill: rgb(0, 0, 0); fill-opacity: 0;"/></g><g class="traces" transform="translate(143.6875, 14.5)" style="opacity: 1;"><text class="legendtext user-select-none" text-anchor="start" x="40" y="4.680000000000001" style="font-family: 'Open Sans', verdana, arial, sans-serif; font-size: 12px; fill: rgb(42, 63, 95); fill-opacity: 1; white-space: pre;">korrigiert</text><g class="layers" style="opacity: 1;"><g class="legendfill"/><g class="legendlines"><path class="js-line" d="M5,0h30" style="fill: none; stroke: rgb(0, 204, 150); stroke-opacity: 1; stroke-width: 2px;"/></g><g class="legendsymbols"><g class="legendpoints"/></g></g><rect class="legendtoggle" pointer-events="all" x="0" y="-9.5" width="91.84375" height="19" style="cursor: pointer; fill: rgb(0, 0, 0); fill-opacity: 0;"/></g><g class="traces" transform="translate(238.03125, 14.5)" style="opacity: 1;"><text class="legendtext user-select-none" text-anchor="start" x="40" y="4.680000000000001" style="font-family: 'Open Sans', verdana, arial, sans-serif; font-size: 12px; fill: rgb(42, 63, 95); fill-opacity: 1; white-space: pre;">neue Infektionen</text><g class="layers" style="opacity: 1;"><g class="legendfill"/><g class="legendlines"><path class="js-line" d="M5,0h30" style="fill: none; stroke: rgb(171, 99, 250); stroke-opacity: 1; stroke-width: 2px;"/></g><g class="legendsymbols"><g class="legendpoints"/></g></g><rect class="legendtoggle" pointer-events="all" x="0" y="-9.5" width="132.578125" height="19" style="cursor: pointer; fill: rgb(0, 0, 0); fill-opacity: 0;"/></g><g class="traces" transform="translate(373.109375, 14.5)" style="opacity: 1;"><text class="legendtext user-select-none" text-anchor="start" x="40" y="4.680000000000001" style="font-family: 'Open Sans', verdana, arial, sans-serif; font-size: 12px; fill: rgb(42, 63, 95); fill-opacity: 1; white-space: pre;">Meldungen</text><g class="layers" style="opacity: 1;"><g class="legendfill"/><g class="legendlines"><path class="js-line" d="M5,0h30" style="fill: none; stroke: rgb(255, 161, 90); stroke-opacity: 1; stroke-width: 2px;"/></g><g class="legendsymbols"><g class="legendpoints"/></g></g><rect class="legendtoggle" pointer-events="all" x="0" y="-9.5" width="103.21875" height="19" style="cursor: pointer; fill: rgb(0, 0, 0); fill-opacity: 0;"/></g><g class="traces" transform="translate(478.828125, 14.5)" style="opacity: 1;"><text class="legendtext user-select-none" text-anchor="start" x="40" y="4.680000000000001" style="font-family: 'Open Sans', verdana, arial, sans-serif; font-size: 12px; fill: rgb(42, 63, 95); fill-opacity: 1; white-space: pre;">R effektiv</text><g class="layers" style="opacity: 1;"><g class="legendfill"/><g class="legendlines"><path class="js-line" d="M5,0h30" style="fill: none; stroke: rgb(25, 211, 243); stroke-opacity: 1; stroke-width: 2px;"/></g><g class="legendsymbols"><g class="legendpoints"/></g></g><rect class="legendtoggle" pointer-events="all" x="0" y="-9.5" width="94.3125" height="19" style="cursor: pointer; fill: rgb(0, 0, 0); fill-opacity: 0;"/></g></g></g><rect class="scrollbar" rx="20" ry="3" width="0" height="0" x="0" y="0" style="fill: rgb(128, 139, 164); fill-opacity: 1;"/></g><g class="g-gtitle"><text class="gtitle" x="60" y="50" text-anchor="start" dy="0em" style="font-family: 'Open Sans', verdana, arial, sans-serif; font-size: 17px; fill: rgb(42, 63, 95); opacity: 1; font-weight: normal; white-space: pre;">Kurzfrist Szenario: R0=3.5 und Lockdown auf Re=0.9</text></g><g class="g-xtitle"/><g class="g-x2title"/><g class="g-x3title"><text class="x3title" x="600" y="739.8" text-anchor="middle" style="font-family: 'Open Sans', verdana, arial, sans-serif; font-size: 14px; fill: rgb(42, 63, 95); opacity: 1; font-weight: normal; white-space: pre;">Tag</text></g><g class="g-ytitle"><text class="ytitle" transform="rotate(-90,33.840625,166.55555555555554)" x="33.840625" y="166.55555555555554" text-anchor="middle" style="font-family: 'Open Sans', verdana, arial, sans-serif; font-size: 14px; fill: rgb(42, 63, 95); opacity: 1; font-weight: normal; white-space: pre;">Anzahl</text></g><g class="g-y2title"><text class="y2title" transform="rotate(-90,46.5125,399.5)" x="46.5125" y="399.5" text-anchor="middle" style="font-family: 'Open Sans', verdana, arial, sans-serif; font-size: 14px; fill: rgb(42, 63, 95); opacity: 1; font-weight: normal; white-space: pre;">R​<tspan style="font-size:70%" dy="0.3em">e</tspan><tspan dy="-0.21em">​</tspan></text></g><g class="g-y3title"><text class="y3title" transform="rotate(-90,23.168750000000003,632.4444444444445)" x="23.168750000000003" y="632.4444444444445" text-anchor="middle" style="font-family: 'Open Sans', verdana, arial, sans-serif; font-size: 14px; fill: rgb(42, 63, 95); opacity: 1; font-weight: normal; white-space: pre;">CFR</text></g><g class="annotation" data-index="0" style="opacity: 1;"><g class="annotation-text-g" transform="rotate(0,600,89.5)"><g class="cursor-pointer" transform="translate(539, 79)"><rect class="bg" x="0.5" y="0.5" width="121" height="20" style="stroke-width: 1px; stroke: rgb(0, 0, 0); stroke-opacity: 0; fill: rgb(0, 0, 0); fill-opacity: 0;"/><text class="annotation-text" text-anchor="middle" x="61.171875" y="16" style="font-family: 'Open Sans', verdana, arial, sans-serif; font-size: 16px; fill: rgb(42, 63, 95); fill-opacity: 1; white-space: pre;">neue Infektionen</text></g></g></g><g class="annotation" data-index="1" style="opacity: 1;"><g class="annotation-text-g" transform="rotate(0,600,322.44444444444446)"><g class="cursor-pointer" transform="translate(565, 312)"><rect class="bg" x="0.5" y="0.5" width="70" height="20" style="stroke-width: 1px; stroke: rgb(0, 0, 0); stroke-opacity: 0; fill: rgb(0, 0, 0); fill-opacity: 0;"/><text class="annotation-text" text-anchor="middle" x="35.203125" y="16" style="font-family: 'Open Sans', verdana, arial, sans-serif; font-size: 16px; fill: rgb(42, 63, 95); fill-opacity: 1; white-space: pre;">R effektiv</text></g></g></g><g class="annotation" data-index="2" style="opacity: 1;"><g class="annotation-text-g" transform="rotate(0,600,555.3888888888889)"><g class="cursor-pointer" transform="translate(531, 545)"><rect class="bg" x="0.5" y="0.5" width="137" height="20" style="stroke-width: 1px; stroke: rgb(0, 0, 0); stroke-opacity: 0; fill: rgb(0, 0, 0); fill-opacity: 0;"/><text class="annotation-text" text-anchor="middle" x="68.8125" y="16" style="font-family: 'Open Sans', verdana, arial, sans-serif; font-size: 16px; fill: rgb(42, 63, 95); fill-opacity: 1; white-space: pre;">Case Fatality Rate</text></g></g></g></g></svg>